<svg width="38" height="38" viewBox="0 0 38 38" fill="none" xmlns="http://www.w3.org/2000/svg">
<path d="M12.0586 30.9692C11.3546 30.9692 10.7524 30.7185 10.2521 30.2171C9.75172 29.7157 9.50103 29.1146 9.49997 28.4137V8.8025H8.7083C8.48347 8.8025 8.29558 8.7265 8.14464 8.5745C7.99369 8.4225 7.91769 8.23408 7.91664 8.00925C7.91558 7.78442 7.99158 7.59653 8.14464 7.44558C8.29769 7.29464 8.48558 7.21917 8.7083 7.21917H14.25C14.25 6.89194 14.3714 6.60694 14.6141 6.36417C14.8569 6.12139 15.1419 6 15.4691 6H22.5308C22.858 6 23.143 6.12139 23.3858 6.36417C23.6286 6.60694 23.75 6.89194 23.75 7.21917H29.2916C29.5165 7.21917 29.7044 7.29517 29.8553 7.44717C30.0062 7.59917 30.0822 7.78758 30.0833 8.01242C30.0844 8.23725 30.0084 8.42514 29.8553 8.57608C29.7022 8.72703 29.5144 8.8025 29.2916 8.8025H28.5V28.4121C28.5 29.1151 28.2493 29.7168 27.7479 30.2171C27.2465 30.7174 26.6448 30.9681 25.9429 30.9692H12.0586ZM16.321 26.2192C16.5458 26.2192 16.7342 26.1432 16.8862 25.9912C17.0382 25.8392 17.1137 25.6513 17.1126 25.4275V12.7608C17.1126 12.536 17.0366 12.3481 16.8846 12.1972C16.7326 12.0462 16.5442 11.9702 16.3194 11.9692C16.0946 11.9681 15.9067 12.0441 15.7557 12.1972C15.6048 12.3502 15.5293 12.5381 15.5293 12.7608V25.4275C15.5293 25.6523 15.6053 25.8402 15.7573 25.9912C15.9093 26.1432 16.0972 26.2192 16.321 26.2192ZM21.6806 26.2192C21.9054 26.2192 22.0933 26.1432 22.2442 25.9912C22.3952 25.8392 22.4706 25.6513 22.4706 25.4275V12.7608C22.4706 12.536 22.3946 12.3481 22.2426 12.1972C22.0906 12.0452 21.9027 11.9692 21.679 11.9692C21.4541 11.9692 21.2657 12.0452 21.1137 12.1972C20.9617 12.3492 20.8862 12.5371 20.8873 12.7608V25.4275C20.8873 25.6523 20.9633 25.8402 21.1153 25.9912C21.2673 26.1421 21.4557 26.2181 21.6806 26.2192Z" fill="url(#paint0_linear_492_4522)"/>
<defs>
<linearGradient id="paint0_linear_492_4522" x1="19" y1="6" x2="19" y2="30.9692" gradientUnits="userSpaceOnUse">
<stop stop-color="#70FFA0"/>
<stop offset="1" stop-color="#57CC1C"/>
</linearGradient>
</defs>
</svg>
