<svg width="38" height="38" viewBox="0 0 38 38" fill="none" xmlns="http://www.w3.org/2000/svg">
<path d="M9.98767 16.625H11.3873V15.0417H9.98767V16.625ZM13.946 19.7917H15.3457V11.875H13.946V19.7917ZM18.3002 22.9583H19.6998V8.70833H18.3002V22.9583ZM22.6543 19.7917H24.054V11.875H22.6543V19.7917ZM26.6127 16.625H28.0123V15.0417H26.6127V16.625ZM4.75 31.7886V7.30867C4.75 6.57928 4.99436 5.97075 5.48308 5.48308C5.97181 4.99542 6.57981 4.75106 7.30708 4.75H30.6929C31.4213 4.75 32.0293 4.99436 32.5169 5.48308C33.0046 5.97181 33.2489 6.58033 33.25 7.30867V24.3596C33.25 25.0879 33.0056 25.6964 32.5169 26.1852C32.0282 26.6739 31.4202 26.9177 30.6929 26.9167H9.62192L4.75 31.7886Z" fill="url(#paint0_linear_492_4517)"/>
<defs>
<linearGradient id="paint0_linear_492_4517" x1="19" y1="4.75" x2="19" y2="31.7886" gradientUnits="userSpaceOnUse">
<stop stop-color="#70FFA0"/>
<stop offset="1" stop-color="#57CC1C"/>
</linearGradient>
</defs>
</svg>
